<svg xmlns="http://www.w3.org/2000/svg" enable-background="new 0 0 512 512" version="1.0" viewBox="0 0 512 512"><path fill="#484F69" d="M191.981,18.322c6.059,0.022,11.187,4.491,12.007,10.494c4.148,30.365,20.402,102.932,21.14,158.262
			c0.846,63.45-28.764,115.901-28.764,160.739c0,29.366,8.367,75.062,14.142,103.101c2.686,13.044-6.776,25.452-20.064,26.336h0
			l-15.477-4.269c-5.598-1.544-11.595,0.039-15.701,4.145h0c-6.072,6.072-14.173,9.688-22.747,10.153l-83.405,4.526
			c-6.743,0.366-12.411-5.003-12.411-11.756v0c0-9.559,5.185-18.365,13.544-23.003l58.356-32.376
			c10.699-5.936,16.938-17.581,15.952-29.777l0,0c-3.15-38.963-8.662-77.709-16.821-115.937
			c-28.682-134.389-11.514-203.131-0.393-251.453c1.275-5.539,6.216-9.452,11.9-9.432L191.981,18.322z"/><path fill="#FF004F" d="M186.936 109.942c1.164-4.913 7.944-5.474 9.878-.81 5.578 13.456 12.596 36.351 11.862 65.199-.722 28.337-8.411 55.696-14.45 73.058-1.799 5.171-9.324 4.436-10.083-.986l-5.667-40.486c-3.506-25.045-2.312-50.524 3.521-75.132L186.936 109.942zM126.695 84.528l6.085 17.707c12.894 37.524 20.336 77.75 21.96 118.701l4.55 114.736c.296 7.469-7.698 9.913-10.062 3.076l-17.37-50.237c-10.754-31.103-16.86-64.54-17.788-98.54-.768-28.135.415-63.947 6.614-104.595C121.278 81.477 125.446 80.893 126.695 84.528z"/><path fill="#484F69" d="M315.418,18.322c-6.059,0.022-11.187,4.491-12.007,10.494c-4.148,30.365-20.402,102.932-21.14,158.262
			c-0.846,63.45,28.764,115.901,28.764,160.739c0,29.366-8.367,75.062-14.142,103.101c-2.686,13.044,6.776,25.452,20.064,26.336l0,0
			l15.477-4.269c5.598-1.544,11.595,0.039,15.701,4.145h0c6.072,6.072,14.172,9.688,22.747,10.153l83.405,4.526
			c6.743,0.366,12.411-5.003,12.411-11.756v0c0-9.559-5.185-18.365-13.544-23.003l-58.356-32.376
			c-10.699-5.936-16.938-17.581-15.952-29.777l0,0c3.15-38.963,8.662-77.709,16.821-115.937
			c28.682-134.389,11.514-203.131,0.393-251.453c-1.275-5.539-6.216-9.452-11.9-9.432L315.418,18.322z"/><path fill="#FF004F" d="M320.463 109.942c-1.164-4.913-7.944-5.474-9.878-.81-5.578 13.456-12.596 36.351-11.862 65.199.722 28.337 8.411 55.696 14.45 73.058 1.799 5.171 9.324 4.436 10.083-.986l5.667-40.486c3.506-25.045 2.312-50.524-3.521-75.132L320.463 109.942zM380.704 84.528l-6.085 17.707c-12.894 37.524-20.336 77.75-21.96 118.701l-4.55 114.736c-.296 7.469 7.698 9.913 10.062 3.076l17.37-50.237c10.754-31.103 16.86-64.54 17.788-98.54.768-28.135-.415-63.947-6.613-104.595C386.121 81.477 381.953 80.893 380.704 84.528z"/></svg>