<svg width="20" height="20" viewBox="0 0 20 20" fill="none" xmlns="http://www.w3.org/2000/svg">
<path fill-rule="evenodd" clip-rule="evenodd" d="M19.781 18.7816C19.4594 19.1345 19.001 19.6371 18.8703 19.7801C18.1806 20.5363 13.8451 19.2628 11.9391 17.173L2.47789 6.7994C1.58364 5.81915 1.87237 3.41455 2.78145 3.02721C2.86561 2.9912 2.9452 2.95694 3.02047 2.92393L7.73966 8.01995C7.96317 8.26501 8.32557 8.26501 8.54931 8.01995L8.94022 7.59109C8.84511 7.46806 8.74864 7.35103 8.65034 7.24326C6.90995 5.33503 4.60281 2.8054 4.60281 2.8054C4.56837 2.76389 4.53484 2.72688 4.50223 2.69412C5.08882 2.12748 6.71769 0.613356 7.25684 0.74564C7.35491 0.769645 7.44682 0.823159 7.53303 0.899177C7.62358 0.836412 7.70979 0.778647 7.79029 0.727385C8.85104 0.0519661 9.50925 -0.234604 10.0283 0.22201C10.5474 0.678622 10.1681 2.36154 11.0788 3.36004C11.9895 4.35879 12.548 4.16349 13.2605 4.09147C14.0597 4.0107 15.0591 3.9977 15.6039 4.59535C16.3782 5.44431 15.418 10.0987 16.6451 13.3855C17.2992 15.138 19.1025 17.403 19.6318 18.0467C19.7181 18.0219 19.8113 18.0382 19.9032 18.1392C20.1012 18.356 19.9625 18.5826 19.781 18.7816Z" fill="black"/>
<path d="M3.22581 19.3103C3.22581 18.9295 3.51465 18.6207 3.87097 18.6207H10.9677C11.3241 18.6207 11.6129 18.9295 11.6129 19.3103C11.6129 19.6912 11.3241 20 10.9677 20H3.87097C3.51465 20 3.22581 19.6912 3.22581 19.3103Z" fill="black"/>
<path d="M0 16.5517C0 16.1708 0.288849 15.8621 0.645161 15.8621H7.09677C7.45309 15.8621 7.74193 16.1708 7.74193 16.5517C7.74193 16.9326 7.45309 17.2414 7.09677 17.2414H0.645161C0.288848 17.2414 0 16.9326 0 16.5517Z" fill="black"/>
</svg>
